<svg width="248" height="45" viewBox="0 0 248 45" fill="none" xmlns="http://www.w3.org/2000/svg">
<g clip-path="url(#clip0_293_3705)">
<mask id="mask0_293_3705" style="mask-type:luminance" maskUnits="userSpaceOnUse" x="0" y="0" width="248" height="45">
<path d="M248 0H0V44.2293H248V0Z" fill="white"/>
</mask>
<g mask="url(#mask0_293_3705)">
<mask id="mask1_293_3705" style="mask-type:luminance" maskUnits="userSpaceOnUse" x="0" y="0" width="248" height="45">
<path d="M248 0H0V44.2293H248V0Z" fill="white"/>
</mask>
<g mask="url(#mask1_293_3705)">
<path d="M21.8355 4.08677C21.2656 3.99601 20.6797 3.94873 20.082 3.94873C20.0115 3.94873 19.9414 3.94938 19.8714 3.95069L19.8713 3.94873H0V24.2561L21.8355 4.08677Z" fill="#FF0059"/>
<path d="M0 31.2434V40.2799H17.8743L6.2613 25.46L0 31.2434Z" fill="#FF0059"/>
<path d="M24.1785 39.9034L10.0898 21.924L26.9296 6.36914C29.0396 8.11566 30.3681 10.6569 30.3681 13.4858C30.3681 17.0905 27.9247 20.2687 24.7423 21.8902C28.5833 23.2732 31.5926 26.693 31.5926 30.7432C31.5926 35.0862 28.4617 38.751 24.1785 39.9034Z" fill="#FF0059"/>
<path d="M46.4629 34.7515V8.70153H55.7106C57.0504 8.70153 58.2598 8.97444 59.3391 9.52025C60.4307 10.0661 61.2928 10.8538 61.9255 11.8834C62.5706 12.9005 62.893 14.1224 62.893 15.549C62.893 16.2436 62.7814 16.9258 62.5581 17.5957C62.3349 18.2656 62.0185 18.8548 61.6091 19.3635C61.1998 19.872 60.7036 20.2318 60.1206 20.4427C60.9145 20.6411 61.5719 21.0009 62.0929 21.5219C62.6263 22.0305 63.0481 22.6259 63.3582 23.3081C63.6682 23.9903 63.8854 24.6974 64.0094 25.4294C64.1459 26.1612 64.2142 26.8559 64.2142 27.5134C64.2142 28.9026 63.8791 30.1431 63.2094 31.2348C62.5394 32.3263 61.6402 33.1885 60.5114 33.8211C59.3949 34.4414 58.1606 34.7515 56.8084 34.7515H46.4629ZM50.3333 31.4022H56.4363C57.2302 31.4022 57.9497 31.2037 58.5948 30.8067C59.2523 30.4099 59.7732 29.864 60.1577 29.1694C60.5423 28.4622 60.7346 27.6683 60.7346 26.7877C60.7346 26.0186 60.5423 25.2929 60.1577 24.6107C59.7732 23.9159 59.2523 23.3577 58.5948 22.9359C57.9497 22.5142 57.2302 22.3033 56.4363 22.3033H50.3333V31.4022ZM50.3333 19.0098H55.3013C56.3184 19.0098 57.1931 18.6997 57.9249 18.0796C58.6568 17.4592 59.0227 16.6096 59.0227 15.5303C59.0227 14.3767 58.6568 13.5146 57.9249 12.944C57.1931 12.3609 56.3184 12.0694 55.3013 12.0694H50.3333V19.0098ZM81.5452 16.1444H85.4155V34.7515H81.5266L81.3777 32.0535C80.8319 33.0087 80.0939 33.7776 79.1635 34.3607C78.2331 34.9437 77.1353 35.2353 75.87 35.2353C74.5055 35.2353 73.2216 34.981 72.0184 34.4724C70.8151 33.9514 69.7545 33.2319 68.8366 32.314C67.931 31.3961 67.224 30.3417 66.7153 29.1508C66.2067 27.9474 65.9524 26.6574 65.9524 25.2804C65.9524 23.9532 66.2005 22.7064 66.6967 21.5405C67.1928 20.362 67.8814 19.3324 68.762 18.4517C69.6428 17.5709 70.6601 16.8825 71.8137 16.3862C72.9798 15.8777 74.2264 15.6234 75.5538 15.6234C76.9058 15.6234 78.0966 15.9335 79.1262 16.5538C80.1683 17.1615 81.0305 17.9431 81.7127 18.8983L81.5452 16.1444ZM75.777 31.4953C76.8686 31.4953 77.8238 31.2285 78.6425 30.6952C79.4613 30.1493 80.0939 29.4174 80.5405 28.4995C80.9993 27.5816 81.2289 26.5643 81.2289 25.448C81.2289 24.3191 80.9993 23.2958 80.5405 22.3777C80.0814 21.4598 79.4426 20.7341 78.6239 20.2007C77.8175 19.6549 76.8686 19.382 75.777 19.382C74.6978 19.382 73.7116 19.6549 72.8185 20.2007C71.9254 20.7466 71.2182 21.4784 70.6972 22.3963C70.1763 23.3143 69.9158 24.3315 69.9158 25.448C69.9158 26.5768 70.1824 27.6001 70.7159 28.5182C71.2616 29.4236 71.975 30.1493 72.8556 30.6952C73.7489 31.2285 74.7226 31.4953 75.777 31.4953ZM105.875 23.0849V34.7515H102.005V24.0338C102.005 23.2027 101.8 22.4459 101.39 21.7637C100.994 21.0815 100.454 20.5419 99.7717 20.1449C99.1019 19.7355 98.3451 19.5309 97.5016 19.5309C96.6829 19.5309 95.9324 19.7355 95.2502 20.1449C94.5679 20.5419 94.0222 21.0815 93.6127 21.7637C93.2035 22.4459 92.9987 23.2027 92.9987 24.0338V34.7515H89.1285V16.1444H92.9987V18.1167C93.6437 17.3476 94.4376 16.7397 95.3805 16.2932C96.3232 15.8466 97.3403 15.6234 98.432 15.6234C99.809 15.6234 101.062 15.9583 102.191 16.6282C103.319 17.298 104.213 18.1974 104.87 19.3262C105.54 20.455 105.875 21.7079 105.875 23.0849ZM125.643 34.7515H121.178L116.6 26.8621L113.605 30.4347V34.7515H109.734V6.84082H113.605V24.4246L120.526 16.1444H125.588L119.243 23.7175L125.643 34.7515ZM135.729 35.2353C134.017 35.2353 132.454 34.7949 131.04 33.9141C129.638 33.0335 128.516 31.8549 127.672 30.3788C126.841 28.8903 126.426 27.2466 126.426 25.448C126.426 24.0834 126.667 22.8119 127.151 21.6335C127.635 20.4427 128.299 19.4006 129.142 18.5075C129.998 17.6019 130.99 16.8949 132.119 16.3862C133.248 15.8777 134.451 15.6234 135.729 15.6234C137.156 15.6234 138.464 15.921 139.655 16.5165C140.846 17.0996 141.863 17.9121 142.707 18.954C143.55 19.9836 144.17 21.1745 144.567 22.5267C144.964 23.8663 145.082 25.2929 144.921 26.8063H130.575C130.736 27.6622 131.046 28.4374 131.505 29.1322C131.977 29.8144 132.572 30.354 133.291 30.7509C134.023 31.1479 134.836 31.3526 135.729 31.3649C136.672 31.3649 137.528 31.1293 138.297 30.6579C139.078 30.1865 139.717 29.5353 140.213 28.7042L144.14 29.616C143.395 31.2657 142.273 32.6179 140.772 33.6723C139.271 34.7142 137.59 35.2353 135.729 35.2353ZM130.445 23.8477H141.013C140.889 22.9546 140.573 22.1483 140.065 21.4288C139.568 20.697 138.942 20.1201 138.185 19.6984C137.441 19.2641 136.622 19.0471 135.729 19.0471C134.848 19.0471 134.03 19.258 133.273 19.6797C132.529 20.1015 131.908 20.6784 131.412 21.4102C130.928 22.1297 130.606 22.9421 130.445 23.8477ZM148.002 34.7515V16.1444H151.873V18.1167C152.518 17.3476 153.312 16.7397 154.254 16.2932C155.197 15.8466 156.214 15.6234 157.306 15.6234C158 15.6234 158.689 15.7164 159.372 15.9025L157.827 19.81C157.343 19.624 156.86 19.5309 156.376 19.5309C155.557 19.5309 154.807 19.7355 154.124 20.1449C153.442 20.5419 152.896 21.0815 152.487 21.7637C152.077 22.4459 151.873 23.2027 151.873 24.0338V34.7515H148.002ZM167.104 35.105C166.124 35.0429 165.169 34.8445 164.238 34.5096C163.308 34.1746 162.49 33.7219 161.782 33.1513C161.087 32.5683 160.566 31.8861 160.22 31.1045L163.513 29.6904C163.674 30.0253 163.952 30.354 164.351 30.6765C164.76 30.9991 165.237 31.2657 165.783 31.4766C166.328 31.6752 166.898 31.7744 167.494 31.7744C168.077 31.7744 168.617 31.6937 169.113 31.5324C169.622 31.3588 170.037 31.0983 170.359 30.7509C170.683 30.4036 170.844 29.988 170.844 29.5043C170.844 28.9586 170.658 28.5366 170.285 28.239C169.927 27.929 169.473 27.6931 168.927 27.532C168.382 27.3707 167.835 27.2156 167.29 27.0668C166.074 26.7938 164.957 26.4217 163.94 25.9503C162.935 25.4665 162.136 24.8525 161.54 24.1082C160.945 23.3515 160.648 22.4273 160.648 21.3358C160.648 20.1449 160.97 19.1153 161.615 18.247C162.259 17.3662 163.103 16.6901 164.145 16.2188C165.2 15.7474 166.322 15.5117 167.513 15.5117C169.003 15.5117 170.366 15.8281 171.607 16.4608C172.847 17.0934 173.797 17.9617 174.454 19.0657L171.383 20.8892C171.197 20.5171 170.919 20.1822 170.546 19.8844C170.175 19.5867 169.753 19.351 169.281 19.1774C168.81 18.9913 168.32 18.8858 167.812 18.861C167.178 18.8362 166.589 18.9106 166.044 19.0844C165.51 19.2456 165.082 19.5061 164.76 19.8658C164.437 20.2255 164.276 20.6845 164.276 21.2427C164.276 21.7885 164.467 22.1979 164.853 22.4707C165.237 22.7312 165.72 22.9421 166.303 23.1034C166.898 23.2647 167.507 23.4446 168.127 23.643C169.232 23.9903 170.268 24.4184 171.235 24.9269C172.203 25.423 172.983 26.0372 173.579 26.769C174.174 27.5009 174.46 28.394 174.435 29.4484C174.435 30.6145 174.081 31.6379 173.375 32.5187C172.68 33.3993 171.775 34.0692 170.658 34.5281C169.541 34.9872 168.356 35.1794 167.104 35.105ZM195.856 34.7515H190.833L183.074 24.0151L181.491 25.9317V34.7515H177.621V8.70153H181.491V19.9216L190.869 8.70153H195.93L185.622 21.0009L195.856 34.7515ZM198.917 34.7515V6.84082H202.787V34.7515H198.917ZM206.496 27.7738V16.1444H210.366V26.8248C210.366 27.656 210.57 28.4126 210.979 29.0949C211.39 29.7771 211.935 30.323 212.617 30.7323C213.3 31.1293 214.05 31.3278 214.868 31.3278C215.699 31.3278 216.451 31.1293 217.121 30.7323C217.803 30.323 218.342 29.7771 218.738 29.0949C219.149 28.4126 219.353 27.656 219.353 26.8248V16.1444H223.223L223.242 34.7515H219.372L219.353 32.7419C218.721 33.511 217.933 34.1188 216.99 34.5654C216.047 35.012 215.036 35.2353 213.957 35.2353C212.579 35.2353 211.327 34.9003 210.199 34.2305C209.07 33.5606 208.171 32.6613 207.501 31.5324C206.831 30.4036 206.496 29.1508 206.496 27.7738ZM236.795 15.6234C238.605 15.6234 240.25 16.0638 241.725 16.9445C243.215 17.8252 244.399 19.0098 245.279 20.4984C246.161 21.9746 246.601 23.6182 246.601 25.4294C246.601 26.7814 246.347 28.053 245.838 29.2438C245.33 30.4222 244.622 31.4643 243.717 32.3697C242.823 33.2629 241.782 33.9637 240.591 34.4724C239.412 34.981 238.147 35.2353 236.795 35.2353C235.492 35.2353 234.351 34.9376 233.37 34.3422C232.404 33.7344 231.609 32.9589 230.99 32.0162V34.7515H227.118V6.84082H230.99V18.8424C231.609 17.8872 232.404 17.1119 233.37 16.5165C234.351 15.921 235.492 15.6234 236.795 15.6234ZM236.757 31.4766C237.836 31.4766 238.823 31.2037 239.716 30.6579C240.61 30.1121 241.316 29.3803 241.837 28.4622C242.371 27.5443 242.638 26.5334 242.638 25.4294C242.638 24.3004 242.371 23.2771 241.837 22.3592C241.303 21.4411 240.591 20.7155 239.697 20.1822C238.804 19.6363 237.825 19.3635 236.757 19.3635C235.678 19.3635 234.729 19.6363 233.911 20.1822C233.092 20.728 232.453 21.4598 231.995 22.3777C231.535 23.2958 231.306 24.3129 231.306 25.4294C231.306 26.5457 231.535 27.563 231.995 28.4809C232.453 29.3988 233.092 30.1308 233.911 30.6765C234.729 31.21 235.678 31.4766 236.757 31.4766Z" fill="#FF0059"/>
</g>
</g>
</g>
<defs>
<clipPath id="clip0_293_3705">
<rect width="248" height="44.2293" fill="white"/>
</clipPath>
</defs>
</svg>
