<svg width="548" height="481" viewBox="0 0 548 481" fill="none" xmlns="http://www.w3.org/2000/svg">
<path d="M197.446 261.751L345.539 351.485V479.085L162.994 368.476L162.985 368.47L144.728 356.876L197.446 261.751ZM454.634 237.585L493.186 261.054L346.038 350.618L198.225 261.054L236.954 237.585L345.78 303.525L346.04 303.683L346.299 303.525L454.634 237.585ZM346.539 351.484L493.965 261.751L547.328 356.87L528.268 368.471L346.539 479.083V351.484Z" fill="#262626" stroke="black"/>
<path d="M345.062 351L198.062 260.5L143.562 356.5L345.062 480V351Z" fill="black"/>
<path d="M346.062 351.5L493.062 261L547.562 357L346.062 480.5V351.5Z" fill="#353535"/>
<path fill-rule="evenodd" clip-rule="evenodd" d="M345.989 175.219L271.93 130.145L218.062 226.14L236.903 238.098L345.989 304.195V175.219ZM345.989 304.195L454.583 238.098L473.98 226.14L420.043 130.148L345.989 175.219V304.195ZM380.375 106L345.989 126.93L311.447 106L271.93 130.145L345.989 175.219L420.043 130.148L380.375 106Z" fill="#646464"/>
<path d="M346.562 175.5L272.562 130.5L219.062 226L346.562 304V175.5Z" fill="#4B4B4B"/>
<path d="M346.062 175L420.062 130L473.562 225.5L346.062 303.5V175Z" fill="#919191"/>
<path fill-rule="evenodd" clip-rule="evenodd" d="M345.915 128.785L380.302 107.855L399.774 96.0035L345.915 0V128.785ZM311.374 107.855L345.915 128.785V0L292.062 96.0035L311.374 107.855Z" fill="#FF0059"/>
<path d="M346.062 0V129L292.062 96L346.062 0Z" fill="#DA2F58"/>
<path d="M1.76201 180V166H9.97201V167.68H3.44201V171.66H9.01201V173.34H3.44201V180H1.76201ZM10.6394 176.2V170H12.3194V175.83C12.3194 176.337 12.4427 176.797 12.6894 177.21C12.936 177.623 13.266 177.953 13.6794 178.2C14.0994 178.44 14.5594 178.56 15.0594 178.56C15.566 178.56 16.0227 178.44 16.4294 178.2C16.8427 177.953 17.1727 177.623 17.4194 177.21C17.666 176.797 17.7894 176.337 17.7894 175.83V170H19.4694L19.4794 180H17.7994L17.7894 178.73C17.436 179.197 16.9894 179.57 16.4494 179.85C15.9094 180.123 15.326 180.26 14.6994 180.26C13.9527 180.26 13.2694 180.08 12.6494 179.72C12.036 179.353 11.546 178.863 11.1794 178.25C10.8194 177.637 10.6394 176.953 10.6394 176.2ZM30.3286 173.78V180H28.6486V174.15C28.6486 173.643 28.5252 173.183 28.2786 172.77C28.0319 172.357 27.7019 172.03 27.2886 171.79C26.8752 171.543 26.4152 171.42 25.9086 171.42C25.4086 171.42 24.9486 171.543 24.5286 171.79C24.1152 172.03 23.7852 172.357 23.5386 172.77C23.2919 173.183 23.1686 173.643 23.1686 174.15V180H21.4886V170H23.1686V171.25C23.5219 170.783 23.9686 170.413 24.5086 170.14C25.0486 169.86 25.6352 169.72 26.2686 169.72C27.0152 169.72 27.6952 169.903 28.3086 170.27C28.9286 170.63 29.4186 171.117 29.7786 171.73C30.1452 172.343 30.3286 173.027 30.3286 173.78ZM40.1831 165H41.8631V180H40.1831V178.3C39.8431 178.887 39.3864 179.36 38.8131 179.72C38.2398 180.08 37.5664 180.26 36.7931 180.26C36.0664 180.26 35.3864 180.123 34.7531 179.85C34.1198 179.577 33.5598 179.2 33.0731 178.72C32.5931 178.233 32.2164 177.673 31.9431 177.04C31.6698 176.407 31.5331 175.727 31.5331 175C31.5331 174.273 31.6698 173.593 31.9431 172.96C32.2164 172.32 32.5931 171.76 33.0731 171.28C33.5598 170.793 34.1198 170.413 34.7531 170.14C35.3864 169.867 36.0664 169.73 36.7931 169.73C37.5664 169.73 38.2398 169.91 38.8131 170.27C39.3864 170.63 39.8431 171.103 40.1831 171.69V165ZM36.8131 178.63C37.4731 178.63 38.0431 178.47 38.5231 178.15C39.0098 177.823 39.3831 177.383 39.6431 176.83C39.9098 176.277 40.0431 175.667 40.0431 175C40.0431 174.32 39.9098 173.707 39.6431 173.16C39.3764 172.607 38.9998 172.17 38.5131 171.85C38.0331 171.523 37.4664 171.36 36.8131 171.36C36.1531 171.36 35.5531 171.523 35.0131 171.85C34.4798 172.177 34.0531 172.617 33.7331 173.17C33.4131 173.717 33.2531 174.327 33.2531 175C33.2531 175.673 33.4164 176.287 33.7431 176.84C34.0698 177.387 34.5031 177.823 35.0431 178.15C35.5831 178.47 36.1731 178.63 36.8131 178.63ZM47.312 180.19C46.772 180.17 46.2453 180.07 45.732 179.89C45.2253 179.703 44.7787 179.453 44.392 179.14C44.012 178.82 43.7353 178.453 43.562 178.04L45.002 177.42C45.102 177.647 45.282 177.86 45.542 178.06C45.802 178.26 46.102 178.42 46.442 178.54C46.782 178.66 47.1253 178.72 47.472 178.72C47.8387 178.72 48.182 178.663 48.502 178.55C48.822 178.437 49.082 178.27 49.282 178.05C49.4887 177.823 49.592 177.553 49.592 177.24C49.592 176.907 49.4787 176.647 49.252 176.46C49.032 176.267 48.752 176.117 48.412 176.01C48.0787 175.897 47.7387 175.79 47.392 175.69C46.7053 175.517 46.092 175.31 45.552 175.07C45.012 174.823 44.5853 174.513 44.272 174.14C43.9653 173.76 43.812 173.277 43.812 172.69C43.812 172.07 43.982 171.533 44.322 171.08C44.6687 170.627 45.122 170.277 45.682 170.03C46.242 169.783 46.842 169.66 47.482 169.66C48.2887 169.66 49.0253 169.833 49.692 170.18C50.3587 170.527 50.8553 170.997 51.182 171.59L49.832 172.38C49.7187 172.14 49.5453 171.93 49.312 171.75C49.0787 171.563 48.812 171.417 48.512 171.31C48.212 171.203 47.9053 171.147 47.592 171.14C47.2053 171.127 46.842 171.177 46.502 171.29C46.1687 171.403 45.8987 171.577 45.692 171.81C45.492 172.037 45.392 172.32 45.392 172.66C45.392 172.993 45.4987 173.247 45.712 173.42C45.932 173.593 46.2153 173.733 46.562 173.84C46.9153 173.94 47.2987 174.057 47.712 174.19C48.3187 174.383 48.8853 174.607 49.412 174.86C49.9387 175.113 50.362 175.43 50.682 175.81C51.0087 176.19 51.1687 176.66 51.162 177.22C51.162 177.833 50.9787 178.37 50.612 178.83C50.2453 179.283 49.7687 179.63 49.182 179.87C48.602 180.11 47.9787 180.217 47.312 180.19ZM1.76201 204V190H6.68201C7.42868 190 8.10201 190.183 8.70201 190.55C9.30868 190.917 9.78868 191.413 10.142 192.04C10.502 192.66 10.682 193.353 10.682 194.12C10.682 194.793 10.5487 195.407 10.282 195.96C10.0153 196.513 9.64868 196.977 9.18201 197.35C8.72201 197.717 8.19868 197.97 7.61201 198.11L11.012 204H9.07201L5.73201 198.25H3.44201V204H1.76201ZM3.44201 196.57H6.51201C6.96535 196.57 7.38201 196.46 7.76201 196.24C8.14201 196.013 8.44201 195.71 8.66201 195.33C8.88868 194.943 9.00201 194.51 9.00201 194.03C9.00201 193.543 8.88868 193.11 8.66201 192.73C8.44201 192.343 8.14201 192.04 7.76201 191.82C7.38201 191.593 6.96535 191.48 6.51201 191.48H3.44201V196.57ZM20.7004 194H22.3804V204H20.7004L20.6304 202.31C20.3171 202.89 19.8838 203.36 19.3304 203.72C18.7838 204.08 18.1304 204.26 17.3704 204.26C16.6371 204.26 15.9504 204.123 15.3104 203.85C14.6704 203.57 14.1038 203.187 13.6104 202.7C13.1238 202.207 12.7438 201.64 12.4704 201C12.1971 200.36 12.0604 199.67 12.0604 198.93C12.0604 198.217 12.1938 197.543 12.4604 196.91C12.7271 196.277 13.0971 195.723 13.5704 195.25C14.0504 194.77 14.6038 194.397 15.2304 194.13C15.8571 193.857 16.5304 193.72 17.2504 193.72C18.0371 193.72 18.7271 193.907 19.3204 194.28C19.9138 194.647 20.3938 195.123 20.7604 195.71L20.7004 194ZM17.3404 202.63C18.0004 202.63 18.5704 202.47 19.0504 202.15C19.5371 201.823 19.9104 201.383 20.1704 200.83C20.4371 200.277 20.5704 199.667 20.5704 199C20.5704 198.32 20.4371 197.707 20.1704 197.16C19.9038 196.607 19.5271 196.17 19.0404 195.85C18.5604 195.523 17.9938 195.36 17.3404 195.36C16.6804 195.36 16.0804 195.523 15.5404 195.85C15.0004 196.177 14.5704 196.617 14.2504 197.17C13.9371 197.717 13.7804 198.327 13.7804 199C13.7804 199.673 13.9438 200.287 14.2704 200.84C14.5971 201.387 15.0304 201.823 15.5704 202.15C16.1104 202.47 16.7004 202.63 17.3404 202.63ZM24.3792 194H26.0592V204H24.3792V194ZM25.2392 192.37C24.9725 192.37 24.7492 192.283 24.5692 192.11C24.3892 191.937 24.2992 191.72 24.2992 191.46C24.2992 191.2 24.3892 190.983 24.5692 190.81C24.7492 190.637 24.9692 190.55 25.2292 190.55C25.4892 190.55 25.7092 190.637 25.8892 190.81C26.0692 190.983 26.1592 191.2 26.1592 191.46C26.1592 191.72 26.0692 191.937 25.8892 192.11C25.7159 192.283 25.4992 192.37 25.2392 192.37ZM31.4136 204.19C30.8736 204.17 30.3469 204.07 29.8336 203.89C29.3269 203.703 28.8802 203.453 28.4936 203.14C28.1136 202.82 27.8369 202.453 27.6636 202.04L29.1036 201.42C29.2036 201.647 29.3836 201.86 29.6436 202.06C29.9036 202.26 30.2036 202.42 30.5436 202.54C30.8836 202.66 31.2269 202.72 31.5736 202.72C31.9402 202.72 32.2836 202.663 32.6036 202.55C32.9236 202.437 33.1836 202.27 33.3836 202.05C33.5902 201.823 33.6936 201.553 33.6936 201.24C33.6936 200.907 33.5802 200.647 33.3536 200.46C33.1336 200.267 32.8536 200.117 32.5136 200.01C32.1802 199.897 31.8402 199.79 31.4936 199.69C30.8069 199.517 30.1936 199.31 29.6536 199.07C29.1136 198.823 28.6869 198.513 28.3736 198.14C28.0669 197.76 27.9136 197.277 27.9136 196.69C27.9136 196.07 28.0836 195.533 28.4236 195.08C28.7702 194.627 29.2236 194.277 29.7836 194.03C30.3436 193.783 30.9436 193.66 31.5836 193.66C32.3902 193.66 33.1269 193.833 33.7936 194.18C34.4602 194.527 34.9569 194.997 35.2836 195.59L33.9336 196.38C33.8202 196.14 33.6469 195.93 33.4136 195.75C33.1802 195.563 32.9136 195.417 32.6136 195.31C32.3136 195.203 32.0069 195.147 31.6936 195.14C31.3069 195.127 30.9436 195.177 30.6036 195.29C30.2702 195.403 30.0002 195.577 29.7936 195.81C29.5936 196.037 29.4936 196.32 29.4936 196.66C29.4936 196.993 29.6002 197.247 29.8136 197.42C30.0336 197.593 30.3169 197.733 30.6636 197.84C31.0169 197.94 31.4002 198.057 31.8136 198.19C32.4202 198.383 32.9869 198.607 33.5136 198.86C34.0402 199.113 34.4636 199.43 34.7836 199.81C35.1102 200.19 35.2702 200.66 35.2636 201.22C35.2636 201.833 35.0802 202.37 34.7136 202.83C34.3469 203.283 33.8702 203.63 33.2836 203.87C32.7036 204.11 32.0802 204.217 31.4136 204.19ZM41.2792 204.26C40.3592 204.26 39.5192 204.023 38.7592 203.55C38.0059 203.077 37.4025 202.443 36.9492 201.65C36.5025 200.85 36.2792 199.967 36.2792 199C36.2792 198.267 36.4092 197.583 36.6692 196.95C36.9292 196.31 37.2859 195.75 37.7392 195.27C38.1992 194.783 38.7325 194.403 39.3392 194.13C39.9459 193.857 40.5925 193.72 41.2792 193.72C42.0325 193.72 42.7225 193.873 43.3492 194.18C43.9825 194.48 44.5225 194.9 44.9692 195.44C45.4225 195.98 45.7592 196.607 45.9792 197.32C46.2059 198.033 46.2892 198.797 46.2292 199.61H38.0692C38.1492 200.177 38.3359 200.683 38.6292 201.13C38.9225 201.57 39.2959 201.92 39.7492 202.18C40.2092 202.44 40.7192 202.573 41.2792 202.58C41.8792 202.58 42.4225 202.427 42.9092 202.12C43.3959 201.807 43.7892 201.38 44.0892 200.84L45.7992 201.24C45.3992 202.127 44.7959 202.853 43.9892 203.42C43.1825 203.98 42.2792 204.26 41.2792 204.26ZM38.0192 198.29H44.5392C44.4859 197.73 44.3059 197.22 43.9992 196.76C43.6925 196.293 43.3025 195.92 42.8292 195.64C42.3559 195.36 41.8392 195.22 41.2792 195.22C40.7192 195.22 40.2059 195.357 39.7392 195.63C39.2725 195.903 38.8859 196.273 38.5792 196.74C38.2792 197.2 38.0925 197.717 38.0192 198.29ZM55.9058 189H57.5858V204H55.9058V202.3C55.5658 202.887 55.1091 203.36 54.5358 203.72C53.9624 204.08 53.2891 204.26 52.5158 204.26C51.7891 204.26 51.1091 204.123 50.4758 203.85C49.8424 203.577 49.2824 203.2 48.7958 202.72C48.3158 202.233 47.9391 201.673 47.6658 201.04C47.3924 200.407 47.2558 199.727 47.2558 199C47.2558 198.273 47.3924 197.593 47.6658 196.96C47.9391 196.32 48.3158 195.76 48.7958 195.28C49.2824 194.793 49.8424 194.413 50.4758 194.14C51.1091 193.867 51.7891 193.73 52.5158 193.73C53.2891 193.73 53.9624 193.91 54.5358 194.27C55.1091 194.63 55.5658 195.103 55.9058 195.69V189ZM52.5358 202.63C53.1958 202.63 53.7658 202.47 54.2458 202.15C54.7324 201.823 55.1058 201.383 55.3658 200.83C55.6324 200.277 55.7658 199.667 55.7658 199C55.7658 198.32 55.6324 197.707 55.3658 197.16C55.0991 196.607 54.7224 196.17 54.2358 195.85C53.7558 195.523 53.1891 195.36 52.5358 195.36C51.8758 195.36 51.2758 195.523 50.7358 195.85C50.2024 196.177 49.7758 196.617 49.4558 197.17C49.1358 197.717 48.9758 198.327 48.9758 199C48.9758 199.673 49.1391 200.287 49.4658 200.84C49.7924 201.387 50.2258 201.823 50.7658 202.15C51.3058 202.47 51.8958 202.63 52.5358 202.63Z" fill="black"/>
<path d="M477.262 53.26C476.315 53.26 475.425 53.0733 474.592 52.7C473.759 52.32 473.025 51.7967 472.392 51.13C471.759 50.4633 471.262 49.6933 470.902 48.82C470.542 47.94 470.362 47 470.362 46C470.362 45 470.542 44.0633 470.902 43.19C471.262 42.31 471.759 41.5367 472.392 40.87C473.025 40.2033 473.759 39.6833 474.592 39.31C475.425 38.93 476.315 38.74 477.262 38.74C478.215 38.74 479.109 38.93 479.942 39.31C480.775 39.6833 481.509 40.2033 482.142 40.87C482.775 41.5367 483.269 42.31 483.622 43.19C483.982 44.0633 484.162 45 484.162 46C484.162 47 483.982 47.94 483.622 48.82C483.269 49.6933 482.775 50.4633 482.142 51.13C481.509 51.7967 480.775 52.32 479.942 52.7C479.109 53.0733 478.215 53.26 477.262 53.26ZM477.262 51.18C477.929 51.18 478.552 51.0433 479.132 50.77C479.712 50.4967 480.222 50.1233 480.662 49.65C481.109 49.17 481.455 48.62 481.702 48C481.955 47.3733 482.082 46.7067 482.082 46C482.082 45.2933 481.955 44.6267 481.702 44C481.455 43.3733 481.109 42.8233 480.662 42.35C480.222 41.87 479.712 41.4967 479.132 41.23C478.552 40.9567 477.929 40.82 477.262 40.82C476.595 40.82 475.972 40.9567 475.392 41.23C474.812 41.5033 474.299 41.88 473.852 42.36C473.412 42.8333 473.065 43.3833 472.812 44.01C472.565 44.63 472.442 45.2933 472.442 46C472.442 46.7133 472.565 47.3833 472.812 48.01C473.065 48.63 473.412 49.18 473.852 49.66C474.299 50.1333 474.812 50.5067 475.392 50.78C475.972 51.0467 476.595 51.18 477.262 51.18ZM485.499 49.25V43H487.579V48.74C487.579 49.1867 487.689 49.5933 487.909 49.96C488.129 50.3267 488.422 50.62 488.789 50.84C489.155 51.0533 489.559 51.16 489.999 51.16C490.445 51.16 490.849 51.0533 491.209 50.84C491.575 50.62 491.865 50.3267 492.079 49.96C492.299 49.5933 492.409 49.1867 492.409 48.74V43H494.489L494.499 53H492.419L492.409 51.92C492.069 52.3333 491.645 52.66 491.139 52.9C490.632 53.14 490.089 53.26 489.509 53.26C488.769 53.26 488.095 53.08 487.489 52.72C486.882 52.36 486.399 51.8767 486.039 51.27C485.679 50.6633 485.499 49.99 485.499 49.25ZM496.504 53V43H498.584V44.06C498.931 43.6467 499.358 43.32 499.864 43.08C500.371 42.84 500.918 42.72 501.504 42.72C501.878 42.72 502.248 42.77 502.614 42.87L501.784 44.97C501.524 44.87 501.264 44.82 501.004 44.82C500.564 44.82 500.161 44.93 499.794 45.15C499.428 45.3633 499.134 45.6533 498.914 46.02C498.694 46.3867 498.584 46.7933 498.584 47.24V53H496.504ZM508.828 53V39H517.078V41.08H510.908V44.46H516.118V46.54H510.908V53H508.828ZM522.057 53.26C521.137 53.26 520.297 53.0233 519.537 52.55C518.783 52.0767 518.18 51.4433 517.727 50.65C517.28 49.85 517.057 48.9667 517.057 48C517.057 47.2667 517.187 46.5833 517.447 45.95C517.707 45.31 518.063 44.75 518.517 44.27C518.977 43.7833 519.51 43.4033 520.117 43.13C520.723 42.8567 521.37 42.72 522.057 42.72C522.823 42.72 523.527 42.88 524.167 43.2C524.807 43.5133 525.353 43.95 525.807 44.51C526.26 45.0633 526.593 45.7033 526.807 46.43C527.02 47.15 527.083 47.9167 526.997 48.73H519.287C519.373 49.19 519.54 49.6067 519.787 49.98C520.04 50.3467 520.36 50.6367 520.747 50.85C521.14 51.0633 521.577 51.1733 522.057 51.18C522.563 51.18 523.023 51.0533 523.437 50.8C523.857 50.5467 524.2 50.1967 524.467 49.75L526.577 50.24C526.177 51.1267 525.573 51.8533 524.767 52.42C523.96 52.98 523.057 53.26 522.057 53.26ZM519.217 47.14H524.897C524.83 46.66 524.66 46.2267 524.387 45.84C524.12 45.4467 523.783 45.1367 523.377 44.91C522.977 44.6767 522.537 44.56 522.057 44.56C521.583 44.56 521.143 44.6733 520.737 44.9C520.337 45.1267 520.003 45.4367 519.737 45.83C519.477 46.2167 519.303 46.6533 519.217 47.14ZM533.033 53.26C532.113 53.26 531.273 53.0233 530.513 52.55C529.76 52.0767 529.156 51.4433 528.703 50.65C528.256 49.85 528.033 48.9667 528.033 48C528.033 47.2667 528.163 46.5833 528.423 45.95C528.683 45.31 529.04 44.75 529.493 44.27C529.953 43.7833 530.486 43.4033 531.093 43.13C531.7 42.8567 532.346 42.72 533.033 42.72C533.8 42.72 534.503 42.88 535.143 43.2C535.783 43.5133 536.33 43.95 536.783 44.51C537.236 45.0633 537.57 45.7033 537.783 46.43C537.996 47.15 538.06 47.9167 537.973 48.73H530.263C530.35 49.19 530.516 49.6067 530.763 49.98C531.016 50.3467 531.336 50.6367 531.723 50.85C532.116 51.0633 532.553 51.1733 533.033 51.18C533.54 51.18 534 51.0533 534.413 50.8C534.833 50.5467 535.176 50.1967 535.443 49.75L537.553 50.24C537.153 51.1267 536.55 51.8533 535.743 52.42C534.936 52.98 534.033 53.26 533.033 53.26ZM530.193 47.14H535.873C535.806 46.66 535.636 46.2267 535.363 45.84C535.096 45.4467 534.76 45.1367 534.353 44.91C533.953 44.6767 533.513 44.56 533.033 44.56C532.56 44.56 532.12 44.6733 531.713 44.9C531.313 45.1267 530.98 45.4367 530.713 45.83C530.453 46.2167 530.28 46.6533 530.193 47.14ZM542.668 53.19C542.142 53.1567 541.628 53.05 541.128 52.87C540.628 52.69 540.188 52.4467 539.808 52.14C539.435 51.8267 539.155 51.46 538.968 51.04L540.738 50.28C540.825 50.46 540.975 50.6367 541.188 50.81C541.408 50.9833 541.665 51.1267 541.958 51.24C542.252 51.3467 542.558 51.4 542.878 51.4C543.192 51.4 543.482 51.3567 543.748 51.27C544.022 51.1767 544.245 51.0367 544.418 50.85C544.592 50.6633 544.678 50.44 544.678 50.18C544.678 49.8867 544.578 49.66 544.378 49.5C544.185 49.3333 543.942 49.2067 543.648 49.12C543.355 49.0333 543.062 48.95 542.768 48.87C542.115 48.7233 541.515 48.5233 540.968 48.27C540.428 48.01 539.998 47.68 539.678 47.28C539.358 46.8733 539.198 46.3767 539.198 45.79C539.198 45.15 539.372 44.5967 539.718 44.13C540.065 43.6567 540.518 43.2933 541.078 43.04C541.645 42.7867 542.248 42.66 542.888 42.66C543.688 42.66 544.422 42.83 545.088 43.17C545.755 43.51 546.265 43.9767 546.618 44.57L544.968 45.55C544.868 45.35 544.718 45.17 544.518 45.01C544.318 44.85 544.092 44.7233 543.838 44.63C543.585 44.53 543.322 44.4733 543.048 44.46C542.708 44.4467 542.392 44.4867 542.098 44.58C541.812 44.6667 541.582 44.8067 541.408 45C541.235 45.1933 541.148 45.44 541.148 45.74C541.148 46.0333 541.252 46.2533 541.458 46.4C541.665 46.54 541.925 46.6533 542.238 46.74C542.558 46.8267 542.885 46.9233 543.218 47.03C543.812 47.2167 544.368 47.4467 544.888 47.72C545.408 47.9867 545.828 48.3167 546.148 48.71C546.468 49.1033 546.622 49.5833 546.608 50.15C546.608 50.7767 546.418 51.3267 546.038 51.8C545.665 52.2733 545.178 52.6333 544.578 52.88C543.978 53.1267 543.342 53.23 542.668 53.19Z" fill="#FF0059"/>
<line x1="132" y1="316.5" x2="169" y2="316.5" stroke="#999999" stroke-dasharray="2 2"/>
<line x1="64.562" y1="176.5" x2="132.562" y2="176.5" stroke="#999999" stroke-dasharray="2 2"/>
<line x1="367.562" y1="45.5" x2="460.562" y2="45.5" stroke="#FF0059"/>
<line x1="133" y1="139.5" x2="268" y2="139.5" stroke="#999999" stroke-dasharray="2 2"/>
<line x1="132.062" y1="317" x2="132.062" y2="140" stroke="#999999" stroke-dasharray="2 2"/>
</svg>
